<?xml version="1.0" encoding="UTF-8" standalone="no"?><!DOCTYPE svg PUBLIC "-//W3C//DTD SVG 1.1//EN" "http://www.w3.org/Graphics/SVG/1.1/DTD/svg11.dtd"><svg width="100%" height="100%" viewBox="0 0 455 88" version="1.1" xmlns="http://www.w3.org/2000/svg" xmlns:xlink="http://www.w3.org/1999/xlink" xml:space="preserve" xmlns:serif="http://www.serif.com/" style="fill-rule:evenodd;clip-rule:evenodd;stroke-linecap:round;stroke-miterlimit:1.5;"><g><g><g><path d="M-0,43.726c0.002,-6.216 3.019,-11.714 7.631,-15.039c2.76,-2.205 6.514,-3.942 11.625,-4.548c18.696,-2.209 24.281,-13.696 24.281,-13.696c0,0 5.588,11.487 24.281,13.696c5.111,0.606 8.868,2.343 11.627,4.548c4.611,3.325 7.629,8.823 7.632,15.039l-0,0.007c-0,6.296 -3.097,11.86 -7.811,15.169c-2.741,2.14 -6.446,3.817 -11.448,4.409c-18.693,2.212 -24.281,13.696 -24.281,13.696c0,-0 -5.585,-11.484 -24.281,-13.696c-5.001,-0.592 -8.704,-2.269 -11.448,-4.409c-4.713,-3.309 -7.808,-8.873 -7.808,-15.169l-0,-0.007Z" style="fill:#fff;"/></g></g><g><path d="M134.371,24.95c-10.338,0 -18.748,8.41 -18.748,18.748c0,10.338 8.41,18.748 18.748,18.748c10.338,0 18.748,-8.41 18.748,-18.748c0,-10.338 -8.41,-18.748 -18.748,-18.748Zm0,30.8c-6.642,0 -12.052,-5.41 -12.052,-12.052c-0,-6.642 5.41,-12.052 12.052,-12.052c6.642,-0 12.053,5.41 12.053,12.052c-0,6.642 -5.411,12.052 -12.053,12.052Z" style="fill:#fff;fill-rule:nonzero;"/><path d="M187.937,24.95l-0,23.891l-24.105,-18.588l-6.695,-5.142l-0,37.389l6.695,-0l0,-23.73l24.105,18.587l6.696,5.143l-0,-37.496l-6.696,-0.054Z" style="fill:#fff;fill-rule:nonzero;"/><path d="M211.238,55.75c-2.357,-0.321 -4.232,-2.196 -4.553,-4.553l0,-26.193l-6.696,-0l0,25.551c0,1.874 0.429,3.642 1.232,5.249c1.125,2.357 3.054,4.285 5.41,5.464c1.607,0.803 3.375,1.232 5.25,1.232l19.016,-0l-0,-6.696l-19.659,-0.054Z" style="fill:#fff;fill-rule:nonzero;"/><path d="M251.412,24.897l-10.284,13.337l-10.285,-13.337l-8.463,-0l14.516,18.801l0.911,1.125l-0,17.57l6.695,-0l0,-17.677l0.804,-1.018l14.516,-18.801l-8.41,-0Zm-29.086,37.656l0.107,-0.107l-0.107,0l0,0.107Zm37.496,0l0,-0.107l-0.053,0l0.053,0.107Z" style="fill:#fff;fill-rule:nonzero;"/></g></g><g><g><g><path d="M338.576,19.562l-0,28.438l14.219,-0c3.9,-0 7.434,-1.585 9.993,-4.185c0.285,-0.284 0.569,-0.568 0.813,-0.853c2.112,-2.478 3.372,-5.687 3.372,-9.181c-0,-7.841 -6.378,-14.178 -14.219,-14.178l-14.178,-0.041Zm5.037,5.119l9.141,0c5.038,0 9.141,4.103 9.141,9.141c-0,5.037 -4.103,9.14 -9.141,9.14l-9.141,0l0,-18.281Z" style="fill:#609cc9;fill-rule:nonzero;"/><path d="M385.295,24.64l14.218,0l0,-5.078l-14.218,0c-7.841,0 -14.219,6.378 -14.219,14.219c-0,7.841 6.378,14.219 14.219,14.219l14.218,-0l0,-15.6l-14.218,-0l-0,5.078l9.14,-0l0,5.444l-9.14,-0c-5.038,-0 -9.141,-4.103 -9.141,-9.141c0,-5.037 4.103,-9.141 9.141,-9.141Z" style="fill:#609cc9;fill-rule:nonzero;"/><path d="M425.27,19.562l-2.6,5.078l-6.216,12.188l-6.216,-12.188l-2.6,-5.078l-5.687,0l2.6,5.078l11.903,23.36l11.903,-23.36l2.6,-5.078l-5.687,0Z" style="fill:#609cc9;fill-rule:nonzero;"/></g><g><path d="M343.075,60.212l4.375,-0l-0,-1.563l-4.375,0c-2.413,0 -4.375,1.963 -4.375,4.375c-0,2.413 1.962,4.375 4.375,4.375l4.375,0l-0,-1.562l-4.375,-0c-1.55,-0 -2.813,-1.263 -2.813,-2.813c0,-1.55 1.263,-2.812 2.813,-2.812Z" style="fill:#fff;fill-rule:nonzero;"/><path d="M352.225,58.649c-2.413,0 -4.375,1.963 -4.375,4.375c-0,2.413 1.962,4.375 4.375,4.375c2.412,0 4.375,-1.962 4.375,-4.375c-0,-2.412 -1.963,-4.375 -4.375,-4.375Zm-0,7.188c-1.55,-0 -2.813,-1.263 -2.813,-2.813c0,-1.55 1.263,-2.812 2.813,-2.812c1.55,-0 2.812,1.262 2.812,2.812c0,1.55 -1.262,2.813 -2.812,2.813Z" style="fill:#fff;fill-rule:nonzero;"/><path d="M364.737,59.849l-2.812,2.163l-2.813,-2.163l-1.562,-1.2l-0,8.75l1.562,0l0,-5.575l1.538,1.175l1.275,0.988l1.275,-0.988l1.537,-1.175l0,5.575l1.563,0l-0,-8.75l-1.563,1.2Z" style="fill:#fff;fill-rule:nonzero;"/><path d="M374.737,59.337c-0.425,-0.425 -1.012,-0.688 -1.662,-0.688l-5.513,0l0,8.75l1.563,0l-0,-4.025l4.187,0l0,-0.012l0.075,-0c0.238,-0.025 0.463,-0.088 0.675,-0.188c0.813,-0.375 1.375,-1.2 1.375,-2.15c0,-0.65 -0.262,-1.237 -0.687,-1.675l-0.013,-0.012Zm-1.325,2.412c-0.1,0.05 -0.212,0.075 -0.325,0.075l-3.962,0l-0,-1.612l3.962,-0c0.275,-0 0.463,0.125 0.563,0.225c0.087,0.087 0.237,0.287 0.237,0.575c0,0.312 -0.187,0.6 -0.475,0.725l0,0.012Z" style="fill:#fff;fill-rule:nonzero;"/><path d="M379.3,65.837c-0.55,-0.075 -0.988,-0.513 -1.063,-1.063l0,-6.112l-1.562,-0l-0,5.962c-0,0.438 0.1,0.85 0.287,1.225c0.263,0.55 0.713,1 1.263,1.275c0.375,0.188 0.787,0.288 1.225,0.288l4.437,-0l0,-1.563l-4.587,-0.012Z" style="fill:#fff;fill-rule:nonzero;"/><rect x="385.137" y="58.649" width="1.563" height="8.75" style="fill:#fff;fill-rule:nonzero;"/><path d="M395.575,65.837l-3.663,-7.188l-3.662,7.188l-0.8,1.562l1.75,0l0.8,-1.562l1.912,-3.75l1.913,3.75l0.8,1.562l1.75,0l-0.8,-1.562Z" style="fill:#fff;fill-rule:nonzero;"/><path d="M404.312,58.649l0,5.575l-5.625,-4.337l-1.562,-1.2l-0,8.725l1.562,-0l0,-5.538l5.625,4.338l1.563,1.2l-0,-8.75l-1.563,-0.013Z" style="fill:#fff;fill-rule:nonzero;"/><path d="M411.375,60.212l4.375,-0l-0,-1.563l-4.375,0c-2.413,0 -4.375,1.963 -4.375,4.375c-0,2.413 1.962,4.375 4.375,4.375l4.375,0l-0,-1.562l-4.375,-0c-1.55,-0 -2.813,-1.263 -2.813,-2.813c0,-1.55 1.263,-2.812 2.813,-2.812Z" style="fill:#fff;fill-rule:nonzero;"/><path d="M419.362,60.212l6.388,-0l-0,-1.563l-6.388,0c-1.3,0 -2.35,1.063 -2.35,2.363l0,4.025c0,1.3 1.05,2.362 2.35,2.362l6.388,0l-0,-1.562l-6.388,-0c-0.437,-0 -0.8,-0.363 -0.8,-0.8l0,-1.65l5.625,-0l0,-1.563l-5.625,0l0,-0.812c0,-0.438 0.363,-0.8 0.8,-0.8Z" style="fill:#fff;fill-rule:nonzero;"/></g></g><path d="M453.481,11.622l0,64.206l-10.495,10.495l-119.912,0l-10.495,-10.495l0,-64.206l10.495,-10.495l119.912,-0l10.495,10.495Z" style="fill:none;stroke:#609cc9;stroke-width:1.25px;"/></g></svg>